HIERARCHY
ROOT Hips
{
	OFFSET 0.000000 0.000000 0.000000 
	CHANNELS 6 Xposition Yposition Zposition Zrotation Yrotation Xrotation
	JOINT LeftUpLeg
	{
		OFFSET 1.363060 -1.794630 0.839290 
		CHANNELS 3 Zrotation Yrotation Xrotation
		JOINT LeftLeg
		{
			OFFSET 2.448110 -6.726130 0.000000 
			CHANNELS 3 Zrotation Yrotation Xrotation
			JOINT LeftFoot
			{
				OFFSET 2.562200 -7.039590 0.000000 
				CHANNELS 3 Zrotation Yrotation Xrotation
				JOINT LeftToeBase
				{
					OFFSET 0.157640 -0.433110 2.322550 
					CHANNELS 3 Zrotation Yrotation Xrotation
					End Site
					{
						OFFSET 0.000000 0.000000 0.000000 
					}
				}
			}
		}
	}
	JOINT RightUpLeg
	{
		OFFSET -1.305520 -1.794630 0.839290 
		CHANNELS 3 Zrotation Yrotation Xrotation
		JOINT RightLeg
		{
			OFFSET -2.542530 -6.985550 0.000000 
			CHANNELS 3 Zrotation Yrotation Xrotation
			JOINT RightFoot
			{
				OFFSET -2.568260 -7.056230 0.000000 
				CHANNELS 3 Zrotation Yrotation Xrotation
				JOINT RightToeBase
				{
					OFFSET -0.164730 -0.452590 2.363150 
					CHANNELS 3 Zrotation Yrotation Xrotation
					End Site
					{
						OFFSET 0.000000 0.000000 0.000000 
					}
				}
			}
		}
	}
	JOINT Spine
	{
		OFFSET 0.028270 2.035590 -0.193380 
		CHANNELS 3 Zrotation Yrotation Xrotation
		JOINT Spine1
		{
			OFFSET 0.056720 2.048850 -0.042750 
			CHANNELS 3 Zrotation Yrotation Xrotation
			JOINT Neck1
			{
				OFFSET -0.054170 1.746240 0.172020 
				CHANNELS 3 Zrotation Yrotation Xrotation
				JOINT Head
				{
					OFFSET 0.104070 1.761360 -0.123970 
					CHANNELS 3 Zrotation Yrotation Xrotation
					End Site
					{
						OFFSET 0.000000 0.000000 0.000000 
					}
				}
			}
			JOINT LeftArm
			{
				OFFSET 3.362410 1.200890 -0.311210 
				CHANNELS 3 Zrotation Yrotation Xrotation
				JOINT LeftForeArm
				{
					OFFSET 4.983000 -0.000000 -0.000000 
					CHANNELS 3 Zrotation Yrotation Xrotation
					JOINT LeftHand
					{
						OFFSET 3.483560 -0.000000 -0.000000 
						CHANNELS 3 Zrotation Yrotation Xrotation
						JOINT LeftHandIndex1
						{
							OFFSET 0.715260 -0.000000 -0.000000 
							CHANNELS 3 Zrotation Yrotation Xrotation
							End Site
							{
								OFFSET 0.000000 0.000000 0.000000 
							}
						}
					}
				}
			}
			JOINT RightArm
			{
				OFFSET -3.136600 1.374050 -0.404650 
				CHANNELS 3 Zrotation Yrotation Xrotation
				JOINT RightForeArm
				{
					OFFSET -5.241900 -0.000000 -0.000000 
					CHANNELS 3 Zrotation Yrotation Xrotation
					JOINT RightHand
					{
						OFFSET -3.444170 -0.000000 -0.000000 
						CHANNELS 3 Zrotation Yrotation Xrotation
						JOINT RightHandIndex1
						{
							OFFSET -0.622530 -0.000000 -0.000000 
							CHANNELS 3 Zrotation Yrotation Xrotation
							End Site
							{
								OFFSET 0.000000 0.000000 0.000000 
							}
						}
					}
				}
			}
		}
	}
}
MOTION
Frames: 15
Frame Time: 0.041667
0.335214 17.582314 -20.826646 4.048845 4.858644 4.816381 -31.322226 -3.543833 -1.456751 0.755704 7.153902 20.234443 1.379012 -7.029574 -9.643763 0.390900 4.014900 11.118600 14.417651 8.269893 -34.759391 -2.877699 -10.961374 31.048112 0.264761 -7.215360 -13.557597 -0.020300 -0.919400 2.527000 -0.171049 -1.148169 -1.647241 3.588628 -0.891454 -0.523003 2.252780 -1.918329 15.538675 -0.344900 -0.915900 9.163900 -87.347171 0.035235 26.647546 19.641829 -31.031658 -5.137874 0.467640 0.050779 3.357398 -7.125000 0.000000 0.000000 86.788842 0.094917 0.834551 -13.073088 23.779975 -2.619755 1.023741 0.278740 -9.355595 7.125000 0.000000 0.000000 
0.334301 17.583430 -20.710914 4.502312 5.093366 4.959820 -31.776953 -3.357329 -0.691548 0.664490 6.862835 19.414601 1.376706 -7.201837 -9.410186 0.396100 4.040900 11.191800 13.852332 8.397688 -34.725513 -2.537650 -10.358663 29.072663 0.300020 -7.706162 -14.007644 -0.007400 -0.557300 1.531300 -0.151625 -1.293081 -1.643634 3.911469 -0.973763 -0.383106 1.893453 -2.081151 15.630019 -0.542000 -1.015400 9.202300 -87.637752 -0.177192 26.550026 19.487775 -30.874096 -5.084615 0.469498 0.042270 3.755069 -7.125000 0.000000 0.000000 86.717673 0.167378 0.837275 -13.112281 23.830785 -2.626034 1.029493 0.291702 -8.970475 7.125000 0.000000 0.000000 
0.322728 17.587491 -20.615893 4.274630 5.134151 5.048088 -31.477772 -3.331171 -0.082340 0.586162 6.631098 18.768126 1.355466 -7.089408 -9.295060 0.377900 3.948200 10.931000 14.041566 9.144676 -34.511227 -2.194985 -9.721604 27.005773 0.428319 -8.746507 -14.188472 -0.021300 -0.942900 2.591700 -0.111423 -1.332109 -1.684118 3.915439 -0.981376 -0.603594 1.823244 -2.141792 15.622524 -0.600200 -1.043800 9.236500 -87.597755 -0.058703 26.868076 19.636656 -31.038173 -5.148418 0.464901 0.050429 3.447659 -7.125000 0.000000 0.000000 86.726090 0.242947 1.245619 -13.099967 23.790955 -2.609983 1.040615 0.265226 -9.235648 7.125000 0.000000 0.000000 
0.329428 17.591044 -20.509501 4.504711 5.205721 5.388249 -31.716951 -3.107035 0.375072 0.486215 6.300140 17.836148 1.316300 -7.132249 -8.772590 0.375300 3.934600 10.892600 13.658952 9.460416 -34.758849 -1.909892 -9.143271 25.167555 0.512416 -9.503828 -14.496742 -0.004400 -0.426600 1.172100 -0.110917 -1.363653 -1.724516 3.999816 -1.001579 -0.458303 1.769739 -2.174884 15.792071 -0.618100 -1.064100 9.313000 -87.671042 -0.108560 27.190687 19.512925 -30.900685 -5.094483 0.467943 0.043138 3.731900 -7.125000 0.000000 0.000000 86.701210 0.410032 0.682851 -12.898368 23.464149 -2.498323 1.059692 0.248148 -8.923666 7.125000 0.000000 0.000000 
0.326078 17.596425 -20.409810 4.586749 4.949945 5.625152 -31.824996 -2.942672 0.836083 0.405100 6.036673 17.096563 1.298211 -7.055383 -8.665665 0.435200 4.233500 11.734500 13.346938 10.419562 -34.673991 -1.637409 -8.545582 23.298160 0.622754 -10.339560 -14.594354 -0.009900 -0.643100 1.767200 -0.102718 -1.247885 -1.768394 4.137963 -0.937763 -0.585588 1.966193 -2.314004 15.686927 -0.542300 -1.118400 9.316000 -87.743563 -0.056570 27.486605 19.547649 -30.942982 -5.124902 0.465143 0.045402 3.587484 -7.125000 0.000000 0.000000 86.739929 0.497558 0.788965 -13.023153 23.663111 -2.564636 1.049178 0.248149 -8.974552 7.125000 0.000000 0.000000 
0.323032 17.601298 -20.300779 4.609818 5.167814 5.609808 -31.746841 -2.431340 1.625204 0.343134 5.754295 16.332320 1.333554 -7.475690 -8.530816 0.422400 4.171400 11.559400 13.026419 11.207908 -34.188545 -1.391422 -7.981053 21.570002 0.787519 -11.719282 -15.275027 0.000000 0.003900 -0.010600 -0.089951 -1.357059 -1.771564 4.154820 -0.992553 -0.629293 2.101498 -2.263873 15.661725 -0.478600 -1.080300 9.236500 -87.755579 -0.057478 27.780881 19.573251 -30.971593 -5.131989 0.464731 0.046409 3.570394 -7.125000 0.000000 0.000000 86.752837 0.294744 1.331488 -13.100011 23.764338 -2.590347 1.051689 0.276934 -9.368814 7.125000 0.000000 0.000000 
0.315621 17.609825 -20.201189 4.645475 5.125236 6.066186 -31.748508 -2.442180 1.975011 0.259237 5.444023 15.467241 1.304188 -7.490075 -8.145966 0.487800 4.478400 12.426500 12.388609 12.521761 -34.320829 -1.181679 -7.499502 20.082820 0.859036 -12.627002 -16.508459 -0.001900 -0.285100 0.783400 -0.063410 -1.354443 -1.850226 4.251246 -0.982751 -0.691052 1.772544 -2.334714 15.806487 -0.662600 -1.127200 9.290700 -87.739801 0.038565 28.083223 19.610612 -31.019358 -5.148602 0.463020 0.048288 3.370982 -7.125000 0.000000 0.000000 86.768669 0.313026 1.490425 -13.166107 23.860298 -2.611599 1.058548 0.269819 -9.532071 7.125000 0.000000 0.000000 
0.311256 17.604039 -20.097031 4.854621 5.377555 6.193945 -31.897781 -2.342031 2.646975 0.209156 5.203093 14.816082 1.300367 -7.720346 -7.806528 0.524300 4.640500 12.886000 11.814199 13.101553 -34.180113 -0.999379 -7.016875 18.642579 0.997961 -13.756295 -17.165955 -0.002400 0.315800 -0.867600 -0.049712 -1.442351 -1.868513 4.392720 -1.023770 -0.764759 1.631234 -2.379244 15.721484 -0.756500 -1.153200 9.246300 -87.750688 0.009839 28.585157 19.581492 -30.991154 -5.148179 0.461547 0.049558 3.573105 -7.125000 0.000000 0.000000 86.826833 -0.091394 1.642489 -13.526766 24.452442 -2.794862 1.045183 0.271099 -9.784080 7.125000 0.000000 0.000000 
0.314302 17.600485 -19.989828 5.251379 5.329949 6.570573 -32.411809 -2.574496 3.138258 0.142827 4.983718 14.202500 1.237589 -7.303466 -7.610515 0.542500 4.719100 13.109100 11.084741 13.559076 -34.433669 -0.871864 -6.640858 17.526395 1.046121 -14.184701 -17.480233 -0.001000 0.201000 -0.552200 -0.082160 -1.305759 -1.877663 4.540940 -0.962908 -0.621821 2.126541 -2.520910 15.459069 -0.498300 -1.202900 9.120200 -87.938049 -0.098892 29.039407 19.553388 -30.954520 -5.121976 0.460677 0.054773 3.465799 -7.125000 0.000000 0.000000 86.829428 0.504812 0.310611 -13.099468 23.775020 -2.570778 1.071438 0.224801 -9.012461 7.125000 0.000000 0.000000 
0.306282 17.599369 -19.889933 4.997456 5.369275 6.640494 -32.039270 -2.189656 3.650257 0.099710 4.769954 13.633191 1.244108 -7.415748 -7.529049 0.476500 4.426800 12.280500 11.041343 14.402127 -34.286293 -0.762487 -6.356016 16.673157 1.045475 -14.696623 -18.889978 -0.002200 0.304000 -0.835300 -0.058069 -1.613967 -1.928258 4.308759 -1.106275 -0.816770 1.926671 -2.569445 15.672506 -0.664800 -1.209500 9.274200 -87.827297 -0.065866 28.481451 19.438054 -30.798458 -5.063863 0.462366 0.047447 3.647217 -7.125000 0.000000 0.000000 87.035161 0.215658 1.543747 -13.350793 24.155165 -2.684348 1.072286 0.234437 -9.245054 7.125000 0.000000 0.000000 
0.292171 17.590435 -19.786384 5.090639 5.412906 6.795762 -32.042113 -1.898289 4.024624 0.056371 4.557551 13.060065 1.211631 -7.382194 -7.156708 0.476800 4.428300 12.285000 10.750581 14.894418 -34.468296 -0.703472 -6.202125 16.207758 1.065946 -15.052552 -19.495204 -0.030200 1.122500 -3.085900 -0.048108 -1.568704 -1.951236 4.453828 -1.078908 -0.895554 1.935904 -2.471122 15.615455 -0.641400 -1.168800 9.226700 -87.822249 0.083260 28.958316 19.519761 -30.900991 -5.110778 0.459813 0.051293 3.775602 -7.125000 0.000000 0.000000 87.106599 0.409597 0.794985 -13.256589 24.008077 -2.655852 1.056295 0.239929 -8.892562 7.125000 0.000000 0.000000 
0.293693 17.586070 -19.679282 5.285495 5.470490 7.007916 -32.211855 -1.713456 4.365960 0.031509 4.429654 12.707763 1.242640 -7.538883 -7.372028 0.342500 3.760800 10.404600 10.667591 14.619638 -34.769995 -0.674393 -6.065059 15.811411 0.998789 -14.630855 -19.395622 -0.010800 0.670100 -1.841400 -0.042772 -1.577408 -1.956931 4.493933 -1.087269 -0.808907 1.658802 -2.628112 15.785099 -0.805300 -1.254000 9.342000 -88.019962 0.056908 29.023849 19.413779 -30.782764 -5.071678 0.461866 0.043237 3.904712 -7.125000 0.000000 0.000000 87.042739 0.335123 1.055198 -13.309424 24.077429 -2.650810 1.079896 0.232787 -9.327949 7.125000 0.000000 0.000000 
0.286892 17.573786 -19.580606 5.709557 5.536740 7.394019 -32.596173 -1.739264 4.700838 0.004262 4.242122 12.199001 1.227553 -7.796745 -6.847142 0.503200 4.547500 12.622200 10.224199 14.435480 -35.504539 -0.684626 -6.101503 15.902176 0.964935 -14.364191 -19.211346 -0.056800 1.538100 -4.230800 -0.107214 -1.906881 -2.024115 4.385770 -1.241715 -0.885764 1.806204 -2.503091 15.708247 -0.762000 -1.170800 9.318900 -87.855988 0.114415 28.799410 19.414189 -30.765059 -5.050716 0.460807 0.048578 3.900766 -7.125000 0.000000 0.000000 87.297755 0.160091 1.673062 -13.483704 24.362233 -2.755163 1.063547 0.242625 -9.275327 7.125000 0.000000 0.000000 
0.281511 17.570537 -19.467819 5.511759 5.633031 7.268043 -32.329085 -1.732995 5.429783 -0.025805 4.117776 11.873670 1.236695 -7.658603 -7.164205 0.448100 4.294500 11.906800 10.701194 14.287666 -35.534868 -0.711013 -6.181089 16.125484 0.978096 -14.240948 -18.746131 -0.050300 1.447900 -3.982100 -0.027953 -1.821376 -2.064688 4.590957 -1.180452 -1.220351 1.982698 -2.320572 15.584824 -0.633900 -1.086300 9.206900 -88.075461 0.416830 29.063545 19.381547 -30.718817 -5.051338 0.457093 0.045494 4.141954 -7.125000 0.000000 0.000000 87.147069 0.240684 1.011296 -13.282784 24.019115 -2.648460 1.070083 0.215319 -8.888091 7.125000 0.000000 0.000000 
0.280902 17.557137 -19.367722 5.835680 5.368842 7.544949 -32.671793 -1.622370 5.544963 -0.038417 4.044650 11.668320 1.223809 -7.664860 -7.011008 0.514100 4.595700 12.758900 10.805477 13.706801 -36.361829 -0.764166 -6.317808 16.499766 1.047652 -14.000867 -16.964908 -0.057700 1.550300 -4.264400 -0.108734 -1.892918 -2.044239 4.335910 -1.222271 -1.064922 2.015952 -2.278109 15.513603 -0.605000 -1.067000 9.179700 -87.940079 0.388911 29.061868 19.391254 -30.728364 -5.048802 0.461047 0.042432 4.025488 -7.125000 0.000000 0.000000 87.308556 0.128944 1.868964 -13.529680 24.428920 -2.781854 1.057499 0.246863 -9.498993 7.125000 0.000000 0.000000 
